<?xml version="1.0" encoding="UTF-8"?><svg id="Layer_1" xmlns="http://www.w3.org/2000/svg" viewBox="0 0 459 133"><defs><style>.cls-1{fill:#83b0f5;stroke-width:0px;}</style></defs><path class="cls-1" d="m136.82,62.3l-7.56-24.68-43.14,16.95,25.48-43.87L86.11,0l-17.92,48L56.29,2.43l-24.57,8.79,19.03,41.33L13.24,26.94,0,45.1l37.65,20.49L0,72.91l3.2,21.48,41.32-10.71-22.18,35.1,25.04,11.79,15.44-37.7,5.59,39.2,28.66-7.88-13.94-33.78,39.88,16.58,7.9-19.85-38.26-15.28,44.17-9.54Zm-85.59,4.46c-.5-1.64.43-3.37,2.06-3.87,1.64-.5,3.37.43,3.87,2.07.5,1.64-.43,3.37-2.06,3.87-1.64.5-3.37-.43-3.87-2.07Zm17.26,13.16c-1.03.3-2.07.45-3.1.45-4.04,0-7.84-2.26-9.72-6.03l3.44-1.71c1.52,3.07,5.01,4.58,8.29,3.61.81-.24,1.57-.62,2.23-1.13l2.32,3.07c-1.03.78-2.2,1.37-3.46,1.75Zm9.09-14l-9-2.34,5.48-7.99,2.34,1.61-3.19,4.65,5.08,1.32-.71,2.75Z"/><path class="cls-1" d="m299.42,71.69l-.22-21.08-46.89,2.43,35.19-22.43-16.73-20.39-31.68,32.51.44-40.47-24.65-.26,1.77,37.9-19.47-32.57-22.39,18.67,26.09,24.85-40.04-2.96v24.23l43.77-2.69-40.6,20.84,20.98,25.32,29.8-32.82-1.33,47.66,29.67-.69-5.28-47.26,31.44,35.08,20.42-21.85-36.32-25.74,46.03,1.72Zm-84.07-15.11c0-1.73,1.4-3.13,3.13-3.13s3.12,1.4,3.12,3.13-1.4,3.13-3.12,3.13-3.13-1.4-3.13-3.13Zm12.77,18.92c-5.34,0-9.88-3.81-10.8-9.08l3.82-.67c.6,3.4,3.53,5.87,6.98,5.87s6.39-2.47,6.98-5.87l3.81.67c-.92,5.26-5.46,9.08-10.8,9.08Zm9.65-15.8c-1.73,0-3.13-1.4-3.13-3.13s1.4-3.13,3.13-3.13,3.13,1.4,3.13,3.13-1.4,3.13-3.13,3.13Z"/><path class="cls-1" d="m458.93,66.32l-44.49-8.13,38.96-23.06-16.71-19.11-33.41,29.48,13.24-39.73-24.67-5.77-5.98,43.27L364.29.97l-21.9,12.69,27.28,34.91-41.87-11.52-4.39,23.96,42.69,7.69-36.72,20.62,12.61,19.39,33.98-24.66-13.02,41.71,25.55,5.25,7.75-43.12,18.31,35.24,22.69-14.73-28.4-31.47,42.2,14.25,7.88-24.85Zm-80.36-11.85c.39-1.68,2.08-2.73,3.76-2.34,1.68.39,2.73,2.07,2.34,3.76-.4,1.68-2.08,2.73-3.76,2.34-1.68-.4-2.73-2.08-2.33-3.76Zm19.59,15.52c-1.58,3.81-5.14,6.19-8.93,6.19-.69,0-1.38-.08-2.07-.24-4.51-1.05-7.54-5.35-7.22-10.22l.08-1.25,18.61,4.36-.48,1.16Zm5.28-9.7c-.39,1.68-2.07,2.73-3.76,2.34-1.68-.4-2.73-2.07-2.33-3.76.4-1.68,2.08-2.73,3.76-2.34,1.68.4,2.72,2.08,2.33,3.76Z"/></svg>